<svg version="1.1" id="Capa_1" xmlns="http://www.w3.org/2000/svg" x="0" y="0" viewBox="0 0 104.9 28" xml:space="preserve"><style>.st1{fill:#fff}</style><g id="_Grupo_" opacity=".6"><g id="_Grupo_2" transform="translate(0 10.711)"><g id="_Grupo_3"><path id="_Trazado_" class="st1" d="M16.6 1c-.5-.5-1.3-.8-2-.8s-1.6.3-2.1.8L0 13.2l4.1 4L14.5 7c1.1-1.1 2.6-1.7 4.1-1.7 1.5 0 3 .6 4.1 1.7l-6.1-6z"/></g></g><g id="_Grupo_4" transform="translate(13.215)"><g id="_Grupo_5"><g id="_Grupo_6"><g id="_Grupo_7"><g id="_Grupo_8"><path id="_Trazado_compuesto_" class="st1" d="M3.5 3.5h4.1v.4c0 1-.3 2-1 2.7-.7.7-1.7 1.1-2.7 1.1C1.8 7.7.1 6 .1 3.9S1.8.1 3.9.1c1.6 0 3 .8 3.5 2.1l-.8.3C6.1 1.5 5.1.9 3.9.9c-.8 0-1.6.3-2.1.9C.7 3 .7 4.8 1.8 6c.6.6 1.3.9 2.1.9.7 0 1.4-.2 1.9-.7.6-.5.9-1.2 1-1.9H3.5v-.8z"/><path id="_Trazado_compuesto_2" class="st1" d="M14.1 2.2V3h-.3c-1.4 0-2.2 1-2.2 2.5v2.1h-.8V2.2h.8v1.3c.5-.9 1.2-1.4 2.2-1.4.1 0 .2.1.3.1z"/><path id="_Trazado_compuesto_3" class="st1" d="M21.7 2.2v5.3h-.8v-.8c-.5.7-1.1 1-2.1 1-.6 0-1.2-.2-1.6-.6-.4-.5-.6-1-.6-1.6V2.2h.8v3c0 1 .6 1.7 1.5 1.7 1.1 0 1.9-.8 1.9-2.1V2.2h.9z"/><path id="_Trazado_compuesto_4" class="st1" d="M30.1 2.9c.5.5.8 1.3.8 2 0 .8-.3 1.5-.8 2s-1.2.8-1.9.8c-.9 0-1.7-.3-2.2-1v2.7h-.8V2.2h.8v.9c.5-.7 1.2-1 2.2-1 .7 0 1.4.2 1.9.8zm-.6 3.5c.8-.9.8-2.2 0-3-.6-.6-1.5-.8-2.3-.4S26 4 26 4.9c0 .5.2 1.1.6 1.5.4.3.9.5 1.4.5.6 0 1.1-.2 1.5-.5z"/><path id="_Trazado_compuesto_5" class="st1" d="M38.3 2.9c.6.5.9 1.2.8 2 0 .8-.3 1.5-.8 2s-1.3.8-2 .8c-.8 0-1.5-.3-2.1-.8-.6-.5-.9-1.3-.8-2 0-.7.3-1.5.8-2 .6-.5 1.3-.8 2.1-.8.7 0 1.4.2 2 .8zm-.6 3.4c.4-.4.6-.9.6-1.5 0-.5-.2-1.1-.6-1.4-.4-.4-.9-.6-1.5-.6-.5 0-1.1.2-1.5.6-.4.4-.6.9-.6 1.5 0 .5.2 1.1.6 1.5.4.4.9.6 1.5.6.6-.1 1.1-.3 1.5-.7z"/></g></g></g></g></g><path id="_Trazado_2" class="st1" d="M23 18c-2.3-2-5.8-1.9-7.9.2l9.9 9.7 4.1-4L23 18z"/><g id="_Grupo_9" transform="translate(33.517 10.711)"><g id="_Grupo_10"><path id="_Trazado_3" class="st1" d="M6.3 16.4c.5.5 1.3.8 2 .8s1.5-.3 2-.8L22.8 4.2l-4.1-4L8.3 10.4c-1.1 1.1-2.6 1.7-4.1 1.7s-3-.6-4.1-1.7l6.2 6z"/></g></g><path id="_Trazado_4" class="st1" d="M33.4 20.8c2.3 2 5.8 1.9 7.9-.2l-9.9-9.7-4.1 4 6.1 5.9z"/><g id="_Grupo_11" transform="translate(54.011 10.711)"><g id="_Grupo_12"><path id="_Trazado_5" class="st1" d="M16.6 1c-.5-.5-1.3-.8-2-.8s-1.6.3-2.1.8L0 13.2l4.1 4L14.5 7c1.1-1.1 2.6-1.7 4.1-1.7 1.5 0 3 .6 4.1 1.7l-6.1-6z"/></g></g><path id="_Trazado_6" class="st1" d="M77 18c-2.3-2-5.8-1.9-7.9.2l9.9 9.7 4.1-4L77 18z"/><g id="_Grupo_13" transform="translate(85.996 16.537)"><g id="_Grupo_14"><path id="_Trazado_7" class="st1" d="M.1 8.6c0 1.6 1.3 2.8 2.9 2.8h14.9V5.7h-12c-1.5 0-3-.6-4.1-1.7S.1 1.5.1 0v8.6z"/></g></g><path id="_Trazado_8" class="st1" d="M86.2 16.2c.2 3 2.7 5.4 5.8 5.4V10.9h-5.8v5.3z"/></g></svg>