<svg width="117" height="29" xmlns="http://www.w3.org/2000/svg"><g fill="none" fill-rule="evenodd"><path d="M121-6H-4c-2.75 0-5 2.25-5 5v30c0 2.75 2.25 5 5 5h125c2.75 0 5-2.25 5-5V-1c0-2.75-2.25-5-5-5"/><path d="M97.936 24h1.865V11.5h-1.865V24zm16.807-7.998l-2.139 5.42h-.064l-2.22-5.42h-2.01l3.33 7.575-1.899 4.214h1.946l5.131-11.789h-2.075zM104.16 22.58c-.61 0-1.463-.306-1.463-1.062 0-.964 1.062-1.335 1.979-1.335.819 0 1.206.178 1.704.418a2.262 2.262 0 01-2.22 1.98zm.226-6.852c-1.351 0-2.75.596-3.329 1.914l1.656.692c.354-.692 1.013-.917 1.705-.917.965 0 1.946.58 1.962 1.608v.13c-.338-.194-1.062-.483-1.946-.483-1.786 0-3.603.981-3.603 2.814 0 1.673 1.464 2.751 3.104 2.751 1.254 0 1.947-.563 2.38-1.223h.065v.965h1.802v-4.793c0-2.219-1.658-3.458-3.796-3.458zm-11.532 1.796H90.2V13.24h2.654c1.395 0 2.187 1.154 2.187 2.142 0 .97-.792 2.143-2.187 2.143zm-.048-6.026h-4.471V24H90.2v-4.736h2.606c2.068 0 4.101-1.498 4.101-3.883s-2.033-3.883-4.101-3.883zM68.425 22.582c-1.289 0-2.368-1.079-2.368-2.56 0-1.5 1.079-2.595 2.368-2.595 1.272 0 2.271 1.095 2.271 2.594 0 1.482-.999 2.561-2.271 2.561zm2.142-5.88h-.064c-.419-.499-1.225-.95-2.239-.95-2.127 0-4.077 1.868-4.077 4.27 0 2.383 1.95 4.236 4.077 4.236 1.014 0 1.82-.45 2.239-.967h.064v.612c0 1.628-.87 2.497-2.271 2.497-1.144 0-1.853-.82-2.143-1.514l-1.627.677c.467 1.127 1.707 2.513 3.77 2.513 2.191 0 4.044-1.289 4.044-4.43v-7.637h-1.773v.693zM73.629 24h1.868V11.5h-1.868V24zm4.623-4.124c-.048-1.644 1.273-2.48 2.223-2.48.742 0 1.37.37 1.58.901l-3.803 1.58zm5.8-1.418c-.355-.95-1.434-2.707-3.641-2.707-2.191 0-4.012 1.724-4.012 4.254 0 2.384 1.805 4.253 4.221 4.253 1.949 0 3.077-1.192 3.545-1.885l-1.45-.967c-.484.71-1.144 1.176-2.095 1.176-.95 0-1.627-.435-2.061-1.289l5.686-2.352-.193-.483zm-45.308-1.4v1.803h4.317c-.128 1.015-.467 1.756-.982 2.271-.629.63-1.612 1.322-3.335 1.322-2.659 0-4.737-2.143-4.737-4.8 0-2.659 2.078-4.803 4.737-4.803 1.434 0 2.481.564 3.254 1.29l1.273-1.273c-1.08-1.03-2.513-1.82-4.527-1.82-3.642 0-6.703 2.964-6.703 6.605 0 3.64 3.061 6.605 6.703 6.605 1.965 0 3.447-.645 4.607-1.853 1.192-1.192 1.563-2.868 1.563-4.22a5.84 5.84 0 00-.097-1.128h-6.073zm11.078 5.524c-1.288 0-2.4-1.063-2.4-2.577 0-1.53 1.112-2.578 2.4-2.578 1.289 0 2.401 1.047 2.401 2.578 0 1.514-1.112 2.577-2.401 2.577zm0-6.83c-2.352 0-4.269 1.788-4.269 4.253 0 2.45 1.917 4.253 4.269 4.253 2.353 0 4.27-1.804 4.27-4.253 0-2.465-1.917-4.254-4.27-4.254zm9.314 6.83c-1.289 0-2.401-1.063-2.401-2.577 0-1.53 1.112-2.578 2.401-2.578 1.289 0 2.4 1.047 2.4 2.578 0 1.514-1.111 2.577-2.4 2.577zm0-6.83c-2.352 0-4.269 1.788-4.269 4.253 0 2.45 1.917 4.253 4.269 4.253 2.352 0 4.269-1.804 4.269-4.253 0-2.465-1.917-4.254-4.269-4.254zM33.05 6.263h1.065c.693 0 1.242-.198 1.647-.595.405-.397.607-.953.607-1.668 0-.71-.202-1.263-.607-1.663-.405-.4-.954-.6-1.647-.6H33.05v4.526zM32.28 7V1h1.835c.922 0 1.66.278 2.213.834.553.556.829 1.278.829 2.166 0 .888-.276 1.61-.83 2.166-.552.556-1.29.834-2.212.834H32.28z" fill="#FFF"/><path d="M33.05 6.263h1.065c.693 0 1.242-.198 1.647-.595.405-.397.607-.953.607-1.668 0-.71-.202-1.263-.607-1.663-.405-.4-.954-.6-1.647-.6H33.05v4.526zM32.28 7V1h1.835c.922 0 1.66.278 2.213.834.553.556.829 1.278.829 2.166 0 .888-.276 1.61-.83 2.166-.552.556-1.29.834-2.212.834H32.28z" stroke="#FFF" stroke-width=".2"/><path fill="#FFF" d="M38.239 7h.771V1h-.771z"/><path stroke="#FFF" stroke-width=".2" d="M38.239 7h.771V1h-.771z"/><path d="M42.076 7.134c-.436 0-.86-.142-1.277-.427a1.976 1.976 0 01-.818-1.198l.704-.285c.084.329.255.607.515.833.261.226.552.34.876.34.335 0 .622-.088.86-.264a.844.844 0 00.355-.717c0-.335-.118-.593-.356-.775-.237-.181-.613-.35-1.127-.507-.53-.167-.933-.384-1.207-.65-.273-.265-.41-.604-.41-1.017 0-.431.17-.805.511-1.123.341-.318.785-.478 1.332-.478.51 0 .922.127 1.24.38.32.256.526.534.62.835l-.703.293c-.05-.19-.175-.365-.373-.528-.198-.161-.454-.242-.767-.242-.296 0-.549.082-.758.247a.754.754 0 00-.315.616.7.7 0 00.29.565c.193.154.476.292.85.415.296.095.543.187.742.277.198.089.4.208.603.356.204.148.357.332.461.553.103.22.155.476.155.767 0 .29-.06.55-.18.779-.12.229-.28.41-.478.545a2.378 2.378 0 01-1.345.41" fill="#FFF"/><path d="M42.076 7.134c-.436 0-.86-.142-1.277-.427a1.976 1.976 0 01-.818-1.198l.704-.285c.084.329.255.607.515.833.261.226.552.34.876.34.335 0 .622-.088.86-.264a.844.844 0 00.355-.717c0-.335-.118-.593-.356-.775-.237-.181-.613-.35-1.127-.507-.53-.167-.933-.384-1.207-.65-.273-.265-.41-.604-.41-1.017 0-.431.17-.805.511-1.123.341-.318.785-.478 1.332-.478.51 0 .922.127 1.24.38.32.256.526.534.62.835l-.703.293c-.05-.19-.175-.365-.373-.528-.198-.161-.454-.242-.767-.242-.296 0-.549.082-.758.247a.754.754 0 00-.315.616.7.7 0 00.29.565c.193.154.476.292.85.415.296.095.543.187.742.277.198.089.4.208.603.356.204.148.357.332.461.553.103.22.155.476.155.767 0 .29-.06.55-.18.779-.12.229-.28.41-.478.545a2.378 2.378 0 01-1.345.41z" stroke="#FFF" stroke-width=".2"/><path d="M45.956 3.832h1.291c.324 0 .584-.108.779-.326.196-.218.293-.458.293-.72 0-.264-.097-.504-.293-.722-.195-.218-.455-.327-.779-.327h-1.291v2.095zm0 3.168h-.771V1h2.045a1.9 1.9 0 011.32.507c.372.338.557.764.557 1.278s-.185.94-.557 1.277a1.893 1.893 0 01-1.32.508h-1.274V7z" fill="#FFF"/><path d="M45.956 3.832h1.291c.324 0 .584-.108.779-.326.196-.218.293-.458.293-.72 0-.264-.097-.504-.293-.722-.195-.218-.455-.327-.779-.327h-1.291v2.095zm0 3.168h-.771V1h2.045a1.9 1.9 0 011.32.507c.372.338.557.764.557 1.278s-.185.94-.557 1.277a1.893 1.893 0 01-1.32.508h-1.274V7z" stroke="#FFF" stroke-width=".2"/><path d="M51.155 5.722a2.2 2.2 0 001.63.674c.642 0 1.186-.224 1.63-.674.444-.45.667-1.024.667-1.722s-.223-1.273-.667-1.722a2.203 2.203 0 00-1.63-.675c-.643 0-1.186.225-1.63.675-.443.45-.666 1.024-.666 1.722s.223 1.272.666 1.722m3.83.502c-.59.607-1.323.91-2.2.91-.877 0-1.61-.303-2.199-.91-.59-.606-.884-1.347-.884-2.224 0-.877.294-1.619.884-2.225.59-.606 1.322-.909 2.2-.909.871 0 1.602.304 2.195.913.592.61.888 1.35.888 2.221 0 .877-.295 1.618-.884 2.224" fill="#FFF"/><path d="M51.155 5.722a2.2 2.2 0 001.63.674c.642 0 1.186-.224 1.63-.674.444-.45.667-1.024.667-1.722s-.223-1.273-.667-1.722a2.203 2.203 0 00-1.63-.675c-.643 0-1.186.225-1.63.675-.443.45-.666 1.024-.666 1.722s.223 1.272.666 1.722zm3.83.502c-.59.607-1.323.91-2.2.91-.877 0-1.61-.303-2.199-.91-.59-.606-.884-1.347-.884-2.224 0-.877.294-1.619.884-2.225.59-.606 1.322-.909 2.2-.909.871 0 1.602.304 2.195.913.592.61.888 1.35.888 2.221 0 .877-.295 1.618-.884 2.224z" stroke="#FFF" stroke-width=".2"/><path fill="#FFF" d="M56.951 7V1h.938l2.916 4.667h.034l-.034-1.156v-3.51h.772v6h-.805l-3.05-4.895h-.034l.034 1.157V7z"/><path stroke="#FFF" stroke-width=".2" d="M56.951 7V1h.938l2.916 4.667h.034l-.034-1.156v-3.51h.772v6h-.805l-3.05-4.895h-.034l.034 1.157V7z"/><path fill="#FFF" d="M62.951 7h.771V1h-.771z"/><path stroke="#FFF" stroke-width=".2" d="M62.951 7h.771V1h-.771z"/><path d="M65.866 6.263h1.551a.918.918 0 00.72-.311.993.993 0 00.277-.678c0-.246-.095-.47-.285-.675a.976.976 0 00-.746-.306h-1.517v1.97zm0-2.69h1.4c.29 0 .524-.096.7-.29a.925.925 0 00.263-.632.916.916 0 00-.256-.628.859.859 0 00-.673-.285h-1.434v1.835zM65.096 7V1h2.17c.47 0 .875.156 1.22.465.343.31.515.7.515 1.169a1.3 1.3 0 01-.223.754 1.388 1.388 0 01-.59.495v.033c.295.1.538.274.73.52.188.246.284.53.284.855 0 .492-.18.899-.54 1.223A1.85 1.85 0 0167.383 7h-2.288z" fill="#FFF"/><path d="M65.866 6.263h1.551a.918.918 0 00.72-.311.993.993 0 00.277-.678c0-.246-.095-.47-.285-.675a.976.976 0 00-.746-.306h-1.517v1.97zm0-2.69h1.4c.29 0 .524-.096.7-.29a.925.925 0 00.263-.632.916.916 0 00-.256-.628.859.859 0 00-.673-.285h-1.434v1.835zM65.096 7V1h2.17c.47 0 .875.156 1.22.465.343.31.515.7.515 1.169a1.3 1.3 0 01-.223.754 1.388 1.388 0 01-.59.495v.033c.295.1.538.274.73.52.188.246.284.53.284.855 0 .492-.18.899-.54 1.223A1.85 1.85 0 0167.383 7h-2.288z" stroke="#FFF" stroke-width=".2"/><path fill="#FFF" d="M70.241 7V1h.771v5.263h2.597V7z"/><path stroke="#FFF" stroke-width=".2" d="M70.241 7V1h.771v5.263h2.597V7z"/><path fill="#FFF" d="M78.085 1.737h-2.732V3.64h2.463v.721h-2.463v1.902h2.732V7h-3.503V1h3.503z"/><path stroke="#FFF" stroke-width=".2" d="M78.085 1.737h-2.732V3.64h2.463v.721h-2.463v1.902h2.732V7h-3.503V1h3.503z"/><path fill="#FFF" d="M84.806 1.737h-2.732V3.64h2.463v.721h-2.463v1.902h2.732V7h-3.503V1h3.503z"/><path stroke="#FFF" stroke-width=".2" d="M84.806 1.737h-2.732V3.64h2.463v.721h-2.463v1.902h2.732V7h-3.503V1h3.503z"/><path fill="#FFF" d="M86.012 7V1h.938l2.916 4.667h.034l-.034-1.156v-3.51h.772v6h-.805l-3.05-4.895h-.034l.034 1.157V7z"/><path stroke="#FFF" stroke-width=".2" d="M86.012 7V1h.938l2.916 4.667h.034l-.034-1.156v-3.51h.772v6h-.805l-3.05-4.895h-.034l.034 1.157V7z"/><g fill="#FFF" stroke="#0040A8"><path d="M1.463 1.398C1.172 1.706 1 2.184 1 2.803v22.116c0 .62.172 1.097.463 1.405l.074.072 12.389-12.39v-.291L1.537 1.325l-.074.073zm16.592 16.74l-4.129-4.131v-.292l4.13-4.131.093.053 4.893 2.78c1.397.794 1.397 2.094 0 2.888l-4.893 2.78-.094.053z"/><path d="M18.15 18.085l-4.224-4.224L1.463 26.324c.46.488 1.222.548 2.079.06l14.608-8.3m0-8.448l-14.608-8.3C2.684.85 1.923.91 1.461 1.397L13.925 13.86l4.224-4.224z"/></g></g></svg>