<svg width="101" height="26" xmlns="http://www.w3.org/2000/svg"><g fill="none" fill-rule="evenodd"><path d="M15.333 12.467a4.947 4.947 0 012.362-4.152 5.079 5.079 0 00-4-2.157c-1.682-.177-3.314 1.004-4.171 1.004-.874 0-2.194-.987-3.616-.958a5.328 5.328 0 00-4.482 2.728c-1.938 3.349-.492 8.27 1.364 10.976.929 1.326 2.014 2.806 3.435 2.754 1.39-.058 1.909-.885 3.586-.885 1.662 0 2.15.885 3.599.851 1.491-.024 2.43-1.331 3.327-2.669a10.953 10.953 0 001.522-3.092 4.782 4.782 0 01-2.926-4.4zm-2.737-8.089A4.866 4.866 0 0013.713.887a4.971 4.971 0 00-3.214 1.66 4.63 4.63 0 00-1.146 3.36 4.11 4.11 0 003.243-1.53zm20.307 14.928H28.16l-1.14 3.357h-2.009l4.493-12.418h2.087l4.493 12.418H34.04l-1.138-3.357zm-4.252-1.549h3.76l-1.854-5.447h-.052l-1.854 5.447zm17.135.379c0 2.814-1.509 4.621-3.786 4.621a3.077 3.077 0 01-2.854-1.584h-.043v4.485H37.24V13.609h1.802v1.506h.034a3.22 3.22 0 012.89-1.6c2.302 0 3.82 1.816 3.82 4.621zm-1.914 0c0-1.833-.949-3.038-2.397-3.038-1.423 0-2.38 1.23-2.38 3.038 0 1.825.957 3.046 2.38 3.046 1.448 0 2.397-1.196 2.397-3.046zm11.9 0c0 2.814-1.51 4.621-3.786 4.621a3.077 3.077 0 01-2.855-1.584h-.043v4.485h-1.862V13.609h1.802v1.506h.035a3.22 3.22 0 012.888-1.6c2.303 0 3.82 1.816 3.82 4.621zm-1.914 0c0-1.833-.95-3.038-2.398-3.038-1.423 0-2.38 1.23-2.38 3.038 0 1.825.957 3.046 2.38 3.046 1.448 0 2.398-1.196 2.398-3.046zm8.513 1.067c.138 1.231 1.337 2.04 2.975 2.04 1.57 0 2.699-.809 2.699-1.92 0-.963-.681-1.54-2.294-1.936L64.138 17c-2.285-.551-3.345-1.618-3.345-3.348 0-2.143 1.87-3.614 4.527-3.614 2.63 0 4.432 1.471 4.493 3.614h-1.88c-.112-1.24-1.139-1.987-2.639-1.987-1.5 0-2.527.757-2.527 1.858 0 .878.656 1.395 2.26 1.79l1.37.336c2.554.603 3.615 1.626 3.615 3.442 0 2.324-1.855 3.779-4.804 3.779-2.76 0-4.623-1.421-4.743-3.667h1.906zm11.659-7.737v2.143h1.726v1.472H74.03v4.99c0 .776.345 1.138 1.103 1.138.205-.004.41-.018.613-.043v1.463a5.124 5.124 0 01-1.034.085c-1.837 0-2.553-.688-2.553-2.444v-5.19h-1.32v-1.47h1.32v-2.143h1.87zm2.725 6.67c0-2.848 1.681-4.638 4.303-4.638 2.63 0 4.303 1.79 4.303 4.638 0 2.857-1.664 4.64-4.303 4.64-2.638 0-4.303-1.783-4.303-4.64zm6.71 0c0-1.954-.898-3.107-2.407-3.107-1.51 0-2.406 1.162-2.406 3.107 0 1.962.897 3.107 2.406 3.107 1.509 0 2.406-1.145 2.406-3.107zm3.432-4.527h1.776v1.541h.043a2.163 2.163 0 012.182-1.636c.215 0 .429.023.638.07v1.738a2.608 2.608 0 00-.836-.112 1.878 1.878 0 00-1.45.596 1.87 1.87 0 00-.491 1.487v5.37h-1.862v-9.054zm13.225 6.395c-.25 1.643-1.854 2.771-3.906 2.771-2.64 0-4.278-1.765-4.278-4.596 0-2.84 1.647-4.681 4.2-4.681 2.51 0 4.088 1.72 4.088 4.466v.636h-6.408v.113c-.06.674.174 1.34.64 1.831a2.365 2.365 0 001.8.733 2.053 2.053 0 002.096-1.273h1.768zM93.827 17.3h4.536a2.175 2.175 0 00-.61-1.634 2.184 2.184 0 00-1.616-.663 2.3 2.3 0 00-1.635.668 2.29 2.29 0 00-.675 1.63zM26.014 3.883c0-1.935 1.031-3.13 2.693-3.13a2.388 2.388 0 012.487 2.067h-.925a1.538 1.538 0 00-1.562-1.203c-1.073 0-1.745.872-1.745 2.266 0 1.39.672 2.262 1.749 2.262a1.498 1.498 0 001.558-1.1h.925A2.332 2.332 0 0128.71 7.01c-1.662 0-2.697-1.195-2.697-3.126zm6.196.728a2.132 2.132 0 011-2.016 2.141 2.141 0 012.254 0 2.132 2.132 0 011.001 2.016 2.132 2.132 0 01-1 2.02 2.142 2.142 0 01-2.256 0 2.132 2.132 0 01-1-2.02zm3.34 0c0-.976-.44-1.547-1.211-1.547-.774 0-1.21.57-1.21 1.547 0 .984.436 1.55 1.21 1.55.77 0 1.21-.57 1.21-1.55zm2.11-2.25h.857v.716h.067a1.351 1.351 0 011.346-.802 1.47 1.47 0 011.562 1.674v2.915h-.89V4.173c0-.724-.316-1.084-.974-1.084A1.036 1.036 0 0038.55 4.23v2.634h-.89V2.361zm6.859-.086c1.014 0 1.678.47 1.765 1.265h-.854c-.082-.33-.406-.542-.911-.542-.497 0-.875.236-.875.587 0 .27.228.439.717.55l.75.174c.858.198 1.26.567 1.26 1.228 0 .848-.792 1.414-1.869 1.414-1.073 0-1.773-.484-1.852-1.281h.891c.158.39.564.623.982.562.554 0 .949-.248.949-.608 0-.269-.212-.443-.664-.55l-.786-.182c-.859-.203-1.256-.587-1.256-1.257 0-.798.733-1.36 1.753-1.36zm2.976-.666l1.04-1.423h1.045L48.415 1.61h-.92zm.092.752h.887v4.503h-.887V2.361zm2.273 4.954h.912c.075.327.452.538 1.053.538.741 0 1.18-.352 1.18-.947v-.864h-.066a1.518 1.518 0 01-1.392.756c-1.152 0-1.864-.889-1.864-2.237 0-1.373.72-2.274 1.873-2.274.583-.02 1.13.286 1.416.794h.07v-.72h.854v4.54c0 1.03-.808 1.684-2.084 1.684-1.127 0-1.856-.505-1.951-1.27zm3.162-2.758c0-.897-.464-1.472-1.223-1.472-.766 0-1.197.575-1.197 1.472s.431 1.472 1.197 1.472c.763 0 1.223-.57 1.223-1.472zm6.098 2.307h-.859V6.15h-.07a1.353 1.353 0 01-1.363.802 1.467 1.467 0 01-1.555-1.666V2.36h.892v2.692c0 .728.294 1.076.948 1.076a1.026 1.026 0 001.115-1.134V2.361h.891v4.503zm5.234-1.215a1.832 1.832 0 01-1.956 1.302 2.051 2.051 0 01-1.58-.68 2.043 2.043 0 01-.504-1.644 2.074 2.074 0 01.502-1.65c.4-.451.975-.708 1.579-.702 1.255 0 2.012.856 2.012 2.27v.31h-3.186v.05a1.189 1.189 0 001.202 1.29c.436.052.86-.164 1.073-.546h.858zM61.22 4.197h2.28a1.085 1.085 0 00-1.111-1.166 1.155 1.155 0 00-1.169 1.166zM65.644.604h.89v6.26h-.89zm2.129 4.007a2.132 2.132 0 011-2.016 2.141 2.141 0 012.255 0 2.132 2.132 0 011 2.016 2.132 2.132 0 01-.999 2.02 2.142 2.142 0 01-2.257 0 2.132 2.132 0 01-1-2.02zm3.34 0c0-.976-.44-1.547-1.21-1.547-.775 0-1.21.57-1.21 1.547 0 .984.435 1.55 1.21 1.55.77 0 1.21-.57 1.21-1.55zm8.374 1.038a1.832 1.832 0 01-1.955 1.302 2.051 2.051 0 01-1.581-.68 2.043 2.043 0 01-.503-1.644 2.074 2.074 0 01.502-1.65c.4-.451.975-.708 1.578-.702 1.256 0 2.013.856 2.013 2.27v.31h-3.186v.05a1.189 1.189 0 001.201 1.29c.436.052.86-.164 1.074-.546h.857zm-3.132-1.452h2.279a1.085 1.085 0 00-1.11-1.166 1.155 1.155 0 00-1.17 1.166zm4.382-1.836h.857v.716h.067a1.351 1.351 0 011.346-.802 1.47 1.47 0 011.562 1.674v2.915h-.89V4.173c0-.724-.316-1.084-.974-1.084a1.036 1.036 0 00-1.078 1.141v2.634h-.89V2.361zM92.21 5.649a1.832 1.832 0 01-1.956 1.302 2.051 2.051 0 01-1.581-.68 2.043 2.043 0 01-.503-1.644 2.074 2.074 0 01.502-1.65c.4-.451.975-.708 1.578-.702 1.256 0 2.013.856 2.013 2.27v.31h-3.186v.05a1.189 1.189 0 001.202 1.29c.435.052.86-.164 1.073-.546h.857zm-3.133-1.452h2.28a1.085 1.085 0 00-1.112-1.166 1.155 1.155 0 00-1.168 1.166zM93.5.604h.89v6.26h-.89z" fill="#FFF" fill-rule="nonzero"/><path d="M113-7H-12c-2.75 0-5 2.25-5 5v30c0 2.75 2.25 5 5 5h125c2.75 0 5-2.25 5-5V-2c0-2.75-2.25-5-5-5"/></g></svg>