<svg width="35" height="35" xmlns="http://www.w3.org/2000/svg" xmlns:xlink="http://www.w3.org/1999/xlink"><defs><path d="M15.054 34.472C6.56 33.367 0 26.104 0 17.31a17.24 17.24 0 012.78-9.413l7.276 12.602A7.923 7.923 0 0020.88 24.38l-5.826 10.091zm1.286.12l7.042-12.197a7.89 7.89 0 001.848-5.086 7.916 7.916 0 00-3.77-6.748h11.793a17.254 17.254 0 011.365 6.748c0 9.56-7.75 17.309-17.309 17.309-.325 0-.648-.009-.969-.027zM3.525 6.838C6.686 2.683 11.685 0 17.309 0c6.705 0 12.52 3.812 15.394 9.388H17.016v.005a7.921 7.921 0 00-7.622 7.61L3.524 6.84zm13.784 16.63a6.16 6.16 0 110-12.32 6.16 6.16 0 010 12.32z" id="a"/></defs><g fill="none" fill-rule="evenodd"><mask id="b" fill="#fff"><use xlink:href="#a"/></mask><use fill="#56AFEF" xlink:href="#a"/><path fill="#FA6758" mask="url(#b)" d="M2.608 5.22l6.93 13.363.91-3.893 2.543-3.235 4.4-1.165 4.472-.256 16.418-.226L21.247-2.105 9.514.032z"/><path fill="#F5D923" mask="url(#b)" d="M19.908 9.985l2.657 2.728 1.709 2.728v2.292l-1.278 3.525-7.48 14.092 3.964.217 8.607-2.903 6.068-7.518 2.032-7.555-.872-5.921-1.093-1.568z"/><path fill="#6CE84E" mask="url(#b)" d="M2.691 6.887l2.98 5.012 4.324 6.58 2.18 3.632 1.89 1.42 2.438.692 3.31-.075 1.899-.767-6.76 12.353L3.074 31.12l-4.94-10.786.545-8.103z"/></g></svg>