<svg xmlns="http://www.w3.org/2000/svg" xmlns:xlink="http://www.w3.org/1999/xlink" width="23" height="23"><defs><path id="a" d="M22.455.545c.363.363.545.817.545 1.362 0 .544-.182.998-.545 1.361L14.224 11.5l8.231 8.232c.363.363.545.817.545 1.361 0 .545-.182 1-.545 1.362-.363.363-.817.545-1.362.545-.544 0-.998-.182-1.361-.545L11.5 14.224l-8.232 8.231c-.363.363-.817.545-1.361.545-.545 0-1-.182-1.362-.545C.182 22.092 0 21.638 0 21.093c0-.544.182-.998.545-1.361L8.776 11.5.545 3.268C.182 2.905 0 2.451 0 1.907c0-.545.182-1 .545-1.362C.908.182 1.362 0 1.907 0c.544 0 .998.182 1.361.545L11.5 8.776 19.732.545C20.095.182 20.549 0 21.093 0c.545 0 1 .182 1.362.545z"/></defs><g fill="none" fill-rule="evenodd"><use fill="#6680AD" xlink:href="#a"/><path stroke="#FAFDFF" d="M22.102.898C21.834.63 21.508.5 21.093.5c-.414 0-.74.13-1.008.398L11.5 9.483 2.915.898C2.647.63 2.32.5 1.907.5c-.415 0-.74.13-1.009.398C.63 1.166.5 1.492.5 1.907c0 .414.13.74.398 1.008L9.483 11.5.898 20.085C.63 20.353.5 20.68.5 21.093c0 .415.13.74.398 1.009.268.268.594.398 1.009.398.414 0 .74-.13 1.008-.398l8.585-8.585 8.585 8.585c.268.268.594.398 1.008.398.415 0 .74-.13 1.009-.398.268-.268.398-.594.398-1.009 0-.414-.13-.74-.398-1.008L13.517 11.5l8.585-8.585c.268-.268.398-.594.398-1.008 0-.415-.13-.74-.398-1.009z"/></g></svg>