<svg width="58" height="60" xmlns="http://www.w3.org/2000/svg"><defs><radialGradient cx="86.85%" cy="30.027%" fx="86.85%" fy="30.027%" r="184.024%" gradientTransform="scale(1 .36288) rotate(2.555 -10.953 .564)" id="a"><stop stop-color="#FFEA00" offset="4.5%"/><stop stop-color="#FFDE00" offset="12%"/><stop stop-color="#FFBF00" offset="25.4%"/><stop stop-color="#FF8E00" offset="42.9%"/><stop stop-color="#FF272D" offset="76.9%"/><stop stop-color="#E0255A" offset="87.2%"/><stop stop-color="#CC2477" offset="95.3%"/><stop stop-color="#C42482" offset="100%"/></radialGradient><radialGradient cx="70.828%" cy="12.393%" fx="70.828%" fy="12.393%" r="109.234%" gradientTransform="scale(1 .9947)" id="b"><stop stop-color="#00CCDA" offset="0%"/><stop stop-color="#0083FF" offset="22%"/><stop stop-color="#007AF9" offset="26.1%"/><stop stop-color="#0060E8" offset="33%"/><stop stop-color="#005FE7" offset="33.3%"/><stop stop-color="#2639AD" offset="43.8%"/><stop stop-color="#401E84" offset="52.2%"/><stop stop-color="#4A1475" offset="56.6%"/></radialGradient><radialGradient cx="147.727%" cy="-21.664%" fx="147.727%" fy="-21.664%" r="171.815%" gradientTransform="scale(.92332 1) rotate(5.762 1.539 1.002)" id="d"><stop stop-color="#FFEA00" offset=".3%"/><stop stop-color="#FF272D" offset="49.7%"/><stop stop-color="#C42482" offset="100%"/></radialGradient><radialGradient cx="135.976%" cy="-52.131%" fx="135.976%" fy="-52.131%" r="453.896%" gradientTransform="matrix(.99495 .05436 -.1004 .53874 -.045 -.314)" id="e"><stop stop-color="#FFE900" offset=".3%"/><stop stop-color="#FFAF0E" offset="15.7%"/><stop stop-color="#FF7A1B" offset="31.6%"/><stop stop-color="#FF4E26" offset="47.2%"/><stop stop-color="#FF2C2E" offset="62.1%"/><stop stop-color="#FF1434" offset="76.2%"/><stop stop-color="#FF0538" offset="89.2%"/><stop stop-color="#FF0039" offset="100%"/></radialGradient><radialGradient cx="211.883%" cy="2.145%" fx="211.883%" fy="2.145%" r="377.539%" gradientTransform="scale(.53347 1) rotate(5.762 3.045 18.432)" id="f"><stop stop-color="#FF272D" offset=".3%"/><stop stop-color="#C42482" offset="49.7%"/><stop stop-color="#620700" offset="98.6%"/></radialGradient><radialGradient cx="89.956%" cy="39.179%" fx="89.956%" fy="39.179%" r="92.371%" gradientTransform="scale(-1 -.95947) rotate(-1.896 -24.178 54.357)" id="g"><stop stop-color="#FFEA00" offset="0%"/><stop stop-color="#FFDE00" offset="23.1%"/><stop stop-color="#FFBF00" offset="36.5%"/><stop stop-color="#FF8E00" offset="54.1%"/><stop stop-color="#FF272D" offset="76.3%"/><stop stop-color="#F92433" offset="79.6%"/><stop stop-color="#E91C45" offset="84.1%"/><stop stop-color="#CF0E62" offset="89.3%"/><stop stop-color="#B5007F" offset="100%"/></radialGradient><radialGradient cx="24.953%" cy=".138%" fx="24.953%" fy=".138%" r="249.815%" gradientTransform="scale(1 .39648)" id="h"><stop stop-color="#FFEA00" offset="27.9%"/><stop stop-color="#FD0" offset="40.2%"/><stop stop-color="#FFBA00" offset="63%"/><stop stop-color="#FF9100" offset="85.6%"/><stop stop-color="#FF6711" offset="93.3%"/><stop stop-color="#FF4A1D" offset="99.4%"/></radialGradient><linearGradient x1="57.339%" y1="75.22%" x2="35.146%" y2="6.805%" id="c"><stop stop-color="#000F43" stop-opacity=".4" offset="0%"/><stop stop-color="#001962" stop-opacity=".173" offset="48.5%"/><stop stop-color="#002079" stop-opacity="0" offset="100%"/></linearGradient><linearGradient x1="-121.603%" y1="64.455%" x2="142.342%" y2="29.666%" id="i"><stop stop-color="#C42482" stop-opacity=".5" offset="0%"/><stop stop-color="#FF272D" stop-opacity=".5" offset="47.4%"/><stop stop-color="#FF2C2C" stop-opacity=".513" offset="48.6%"/><stop stop-color="#FF7A1A" stop-opacity=".72" offset="67.5%"/><stop stop-color="#FFB20D" stop-opacity=".871" offset="82.9%"/><stop stop-color="#FFD605" stop-opacity=".964" offset="94.2%"/><stop stop-color="#FFE302" offset="100%"/></linearGradient><linearGradient x1="56.498%" y1="94.893%" x2="19.49%" y2="5.478%" id="j"><stop stop-color="#891551" stop-opacity=".6" offset="0%"/><stop stop-color="#C42482" stop-opacity="0" offset="100%"/></linearGradient><linearGradient x1="8.04%" y1="6.686%" x2="47.914%" y2="47.886%" id="k"><stop stop-color="#891551" stop-opacity=".5" offset=".5%"/><stop stop-color="#FF272D" stop-opacity=".5" offset="48.4%"/><stop stop-color="#FF272D" stop-opacity="0" offset="100%"/></linearGradient><linearGradient x1="47.509%" y1="102.675%" x2="50.009%" y2="31.749%" id="l"><stop stop-color="#C42482" offset="0%"/><stop stop-color="#C42482" stop-opacity=".81" offset="8.3%"/><stop stop-color="#C42482" stop-opacity=".565" offset="20.6%"/><stop stop-color="#C42482" stop-opacity=".362" offset="32.8%"/><stop stop-color="#C42482" stop-opacity=".204" offset="44.7%"/><stop stop-color="#C42482" stop-opacity=".091" offset="56.2%"/><stop stop-color="#C42482" stop-opacity=".023" offset="67.3%"/><stop stop-color="#C42482" stop-opacity="0" offset="77.3%"/></linearGradient><linearGradient x1="6.334%" y1="1.647%" x2="92.351%" y2="89.461%" id="m"><stop stop-color="#FFF14F" offset="0%"/><stop stop-color="#FFEE4C" offset="26.8%"/><stop stop-color="#FFE643" offset="45.2%"/><stop stop-color="#FFD834" offset="61.2%"/><stop stop-color="#FFC41E" offset="75.7%"/><stop stop-color="#FFAB02" offset="89.2%"/><stop stop-color="#FFA900" offset="90.2%"/><stop stop-color="#FFA000" offset="94.9%"/><stop stop-color="#FF9100" offset="100%"/></linearGradient><linearGradient x1="71.789%" y1="7.159%" x2="42.746%" y2="81.948%" id="n"><stop stop-color="#FF8E00" offset="0%"/><stop stop-color="#FF8E00" stop-opacity=".858" offset="4%"/><stop stop-color="#FF8E00" stop-opacity=".729" offset="8.4%"/><stop stop-color="#FF8E00" stop-opacity=".628" offset="13%"/><stop stop-color="#FF8E00" stop-opacity=".557" offset="17.8%"/><stop stop-color="#FF8E00" stop-opacity=".514" offset="22.7%"/><stop stop-color="#FF8E00" stop-opacity=".5" offset="28.2%"/><stop stop-color="#FF8E00" stop-opacity=".478" offset="38.9%"/><stop stop-color="#FF8E00" stop-opacity=".416" offset="52.4%"/><stop stop-color="#FF8E00" stop-opacity=".314" offset="67.6%"/><stop stop-color="#FF8E00" stop-opacity=".172" offset="83.8%"/><stop stop-color="#FF8E00" stop-opacity="0" offset="100%"/></linearGradient></defs><g fill="none"><path d="M45.875 5.453c-1.426 1.66-2.09 5.398-.644 9.187 1.446 3.788 3.662 2.966 5.044 6.83 1.824 5.097.975 11.945.975 11.945s2.193 6.35 3.72-.395c3.382-12.667-9.095-24.448-9.095-27.567z" fill="url(#a)" transform="translate(.278 .416)"/><path d="M28.472 58.045c14.605 0 26.437-11.895 26.437-26.563S43.077 4.918 28.486 4.918c-14.59 0-26.422 11.896-26.422 26.564-.029 14.682 11.817 26.563 26.408 26.563z" fill="url(#b)" transform="translate(.278 .416)"/><path d="M48.28 47.861c-.571.403-1.17.765-1.793 1.083a41.927 41.927 0 002.28-3.75c.564-.623 1.08-1.23 1.5-1.885.205-.322.436-.719.68-1.18 1.485-2.674 3.121-7.002 3.168-11.447v-.339a15.342 15.342 0 00-.34-3.32c.012.085.023.17.033.256-.013-.066-.024-.132-.038-.198.022.121.04.238.058.357.304 2.573.087 5.084-.993 6.935l-.052.079c.56-2.813.748-5.92.124-9.029 0 0-.25-1.512-2.107-6.101-1.069-2.641-2.967-4.807-4.645-6.385-1.47-1.819-2.806-3.04-3.542-3.815-1.538-1.62-2.182-2.833-2.447-3.625-.23-.115-3.165-2.966-3.398-3.075-1.28 1.986-5.31 8.2-3.393 14.004.868 2.631 3.065 5.362 5.364 6.893.1.116 1.368 1.492 1.97 4.595.622 3.207.295 5.71-.985 9.41-1.506 3.245-5.364 6.454-8.977 6.783-7.723.701-10.55-3.878-10.55-3.878 2.76 1.103 5.81.873 7.666-.271 1.87-1.157 3.002-2.015 3.92-1.677.905.337 1.626-.64.979-1.653a4.675 4.675 0 00-4.729-2.06c-1.872.305-3.587 1.788-6.04.352a5.094 5.094 0 01-.46-.302c-.162-.106.526.162.365.041-.477-.26-1.322-.824-1.54-1.025-.037-.034.37.13.333.096-2.294-1.889-2.007-3.164-1.935-3.965.058-.64.474-1.46 1.176-1.793.34.185.55.326.55.326s-.144-.295-.222-.45c.027-.013.053-.01.08-.021.278.134.893.482 1.216.695.421.297.555.562.555.562s.111-.061.03-.32c-.03-.107-.158-.444-.575-.785l.026.003c.25.142.486.306.706.49.118-.427.33-.873.283-1.672-.028-.562-.015-.707-.114-.924-.089-.187.05-.26.203-.066-.026-.151-.07-.3-.131-.44l.001-.015c.192-.67 4.065-2.41 4.347-2.613.463-.328.851-.75 1.139-1.239.215-.343.377-.825.417-1.555.021-.527-.224-.878-4.14-1.288-1.07-.105-1.699-.881-2.056-1.597a10.444 10.444 0 00-.198-.434 3.454 3.454 0 01-.152-.502c.64-1.839 1.715-3.393 3.297-4.568.086-.078-.344.02-.258-.058.1-.092.757-.356.88-.416.152-.071-.648-.41-1.353-.328-.72.081-.872.167-1.255.33.159-.159.665-.367.546-.365-.774.118-1.737.569-2.56 1.079a.64.64 0 01.05-.259c-.384.163-1.326.821-1.6 1.378a2.64 2.64 0 00.015-.321 5.02 5.02 0 00-.786.823l-.014.013c-2.225-.897-4.183-.955-5.84-.553-.362-.364-.54-.098-1.364-1.91-.056-.109.043.108 0 0-.136-.351.083.47 0 0-1.387 1.095-3.211 2.335-4.087 3.21-.01.035 1.022-.292 0 0-.358.102-.334.314-.388 2.233-.013.146-.001.309-.013.44-.7.891-1.176 1.646-1.357 2.037-.904 1.56-1.901 3.99-2.867 7.835.426-1.042.94-2.047 1.536-3.002-.804 2.04-1.58 5.246-1.735 10.18.194-1.018.443-2.025.746-3.016a28.172 28.172 0 002.069 11.974c.555 1.36 1.474 3.422 3.039 5.682 4.915 5.171 11.848 8.391 19.526 8.391 8.014 0 15.211-3.506 20.157-9.075z" fill="url(#c)" transform="translate(.278 .416)"/><path d="M42.35 51.618c9.7-1.124 13.994-11.12 8.48-11.316-4.981-.16-13.074 11.846-8.48 11.316z" fill="url(#d)" transform="translate(.278 .416)"/><path d="M51.528 38.26c6.674-3.884 4.934-12.273 4.934-12.273s-2.576 2.992-4.325 7.761c-1.729 4.723-4.621 6.858-.609 4.512z" fill="url(#e)" transform="translate(.278 .416)"/><path d="M30.342 56.582c9.304 2.969 17.301-4.36 12.372-6.809-4.482-2.207-16.788 5.405-12.372 6.809z" fill="url(#f)" transform="translate(.278 .416)"/><path d="M52.222 41.822c.226-.32.532-1.342.802-1.799 1.643-2.652 1.655-4.766 1.655-4.814.992-4.956.902-6.98.291-10.723-.49-3.013-2.64-7.33-4.5-9.41-1.918-2.142-.567-1.444-2.424-3.008-1.627-1.805-3.205-3.591-4.064-4.31-6.21-5.191-6.07-6.294-5.95-6.482l-.088.098c-.074-.294-.126-.54-.126-.54s-3.395 3.394-4.11 9.052c-.466 3.694.917 7.545 2.919 10.006a22.713 22.713 0 003.514 3.454v-.002c1.512 2.173 2.345 4.854 2.345 7.737 0 7.221-5.857 13.075-13.082 13.075-.984 0-1.966-.11-2.926-.33-3.409-.649-5.377-2.368-6.359-3.536-.562-.669-.802-1.156-.802-1.156 3.055 1.094 6.432.865 8.485-.27 2.07-1.147 3.322-1.997 4.338-1.662 1.002.334 1.8-.635 1.084-1.64-.701-1.003-2.525-2.44-5.234-2.042-2.071.302-3.97 1.773-6.684.348a5.736 5.736 0 01-.51-.299c-.179-.105.582.16.405.04-.529-.256-1.464-.817-1.706-1.016-.04-.033.41.129.369.095-2.538-1.873-2.221-3.138-2.142-3.931.064-.635.525-1.449 1.302-1.779.375.184.61.324.61.324s-.16-.293-.247-.448c.03-.011.059-.008.089-.02.307.133.987.478 1.345.69.466.294.615.557.615.557s.123-.06.032-.318c-.033-.105-.175-.44-.636-.778l.028.003c.275.14.536.303.783.487.13-.424.364-.867.313-1.66-.032-.556-.017-.7-.127-.916-.098-.184.055-.257.225-.065a1.789 1.789 0 00-.145-.437l.001-.014c.213-.664 4.499-2.39 4.81-2.592a4.187 4.187 0 001.262-1.228c.238-.34.418-.818.461-1.543.015-.326-.086-.584-1.22-.831-.682-.149-1.736-.293-3.362-.445-1.185-.105-1.88-.874-2.275-1.585a9.766 9.766 0 00-.22-.43 3.163 3.163 0 01-.168-.498 9.438 9.438 0 013.65-4.53c.095-.078-.382.02-.286-.058.11-.09.837-.353.974-.412.168-.07-.717-.407-1.498-.325-.796.08-.964.165-1.39.327.177-.158.737-.364.606-.362-.858.118-1.924.564-2.835 1.07a.576.576 0 01.055-.257c-.424.162-1.467.815-1.77 1.367.012-.106.018-.212.017-.319-.32.239-.611.512-.87.816l-.015.013c-2.463-.889-4.63-.946-6.464-.548-.4-.36-1.046-.906-1.959-2.704-.062-.108-.095.224-.142.117-.355-.822-.57-2.17-.534-3.1 0 0-.734.335-1.341 1.731a8.92 8.92 0 01-.257.528c-.034.04.075-.458.058-.431-.106.179-.379.428-.499.751-.082.24-.198.374-.272.673l-.017.027c-.006-.088.022-.362.002-.306-.285.575-.53 1.169-.733 1.777-.327 1.075-.708 2.538-.768 4.441-.015.144-.002.306-.015.436-.774.884-1.302 1.632-1.501 2.02C2.393 19.52 1.29 21.931.22 25.743a19.007 19.007 0 011.7-2.977C1.03 24.79.17 27.97 0 32.863c.216-1.013.492-2.012.826-2.992-.153 3.264.227 7.31 2.29 11.875 1.225 2.685 4.045 8.138 10.936 12.394 0 0 2.343 1.745 6.373 3.053.297.108.599.214.907.317a5.986 5.986 0 01-.28-.122 28.878 28.878 0 008.265 1.215c10.433.009 13.51-4.18 13.51-4.18l-.03.022c.147-.139.289-.283.425-.433-1.646 1.555-5.402 1.658-6.807 1.546 2.396-.704 3.972-1.299 7.038-2.473.359-.133.726-.284 1.1-.455l.123-.056c.074-.034.148-.067.223-.103a20.797 20.797 0 004.185-2.62c3.079-2.46 3.749-4.857 4.099-6.438a8.857 8.857 0 01-.308.733c-.793 1.697-2.551 2.738-4.461 3.63a41.034 41.034 0 002.524-3.718c.624-.618.818-1.586 1.284-2.236z" fill="url(#g)" transform="translate(.278 .416)"/><path d="M48.474 47.703c1.255-1.384 2.383-2.967 3.237-4.762 2.197-4.62 5.595-12.303 2.919-20.327-2.115-6.342-5.019-9.81-8.706-13.197-5.988-5.5-7.66-7.957-7.66-9.417 0 0-6.914 7.707-3.916 15.745 2.999 8.039 9.14 7.744 13.203 16.133 4.78 9.87-3.869 20.643-11.02 23.657.437-.097 15.899-3.596 16.711-12.44-.018.163-.366 2.61-4.768 4.608z" fill="url(#h)" transform="translate(.278 .416)"/><path d="M28.443 19.02c.024-.522-.247-.873-4.566-1.278-1.778-.164-2.458-1.806-2.665-2.498-.632 1.642-.893 3.365-.753 5.448.096 1.365 1.013 2.83 1.451 3.69 0 0 .098-.126.143-.173.825-.859 4.284-2.169 4.609-2.354.358-.227 1.721-1.223 1.781-2.834z" fill="url(#i)" transform="translate(.278 .416)"/><path d="M9.429 9.319c-.062-.108-.096.223-.143.117-.355-.823-.57-2.156-.52-3.099 0 0-.733.335-1.34 1.731-.113.251-.186.39-.258.528-.033.04.076-.459.058-.431-.105.178-.378.428-.497.737-.098.252-.2.388-.275.7-.023.086.024-.376.004-.32-1.413 2.73-1.682 6.856-1.533 6.682 3.006-3.21 6.451-3.972 6.451-3.972-.366-.27-1.163-1.05-1.947-2.673z" fill="url(#j)" transform="translate(.278 .416)"/><path d="M20.835 42.886c-4.152-1.773-8.873-4.273-8.695-9.954.243-7.481 6.977-6.003 6.977-6.003-.254.062-.934.546-1.175 1.062-.254.645-.718 2.1.688 3.627 2.21 2.393-4.538 5.679 5.876 11.885.263.143-2.44-.085-3.67-.617z" fill="url(#k)" transform="translate(.278 .416)"/><path d="M19.36 39.158c2.945 1.025 6.375.845 8.429-.29 1.374-.765 3.138-1.99 4.223-1.688-.94-.371-1.65-.545-2.507-.587a4.97 4.97 0 01-.48-.02 8.113 8.113 0 00-.938.052c-.53.049-1.117.383-1.651.33-.03-.003.518-.225.473-.215-.283.059-.59.072-.915.112-.207.023-.384.049-.59.057-6.132.52-11.316-3.324-11.316-3.324-.441 1.486 1.975 4.425 5.272 5.573z" fill="url(#l)" transform="translate(.278 .416)"/><path d="M48.463 47.743c6.203-6.091 9.342-13.495 8.015-21.799 0 0 .53 4.258-1.48 8.614.966-4.252 1.078-9.536-1.487-15.008-3.424-7.303-9.055-11.146-11.205-12.75-3.258-2.429-4.608-4.902-4.632-5.412-.974 1.993-3.917 8.826-.317 14.71 3.374 5.513 8.687 7.149 12.407 12.206 6.854 9.316-1.301 19.439-1.301 19.439z" fill="url(#m)" transform="translate(.278 .416)"/><path d="M47.574 31.895c-2.168-4.478-4.874-6.432-7.433-8.55.297.418.37.565.536.835 2.253 2.4 5.575 8.257 3.163 15.61-4.54 13.839-22.7 7.322-24.603 5.492.77 8.01 14.176 11.842 22.905 6.648 4.967-4.702 8.985-12.695 5.432-20.035z" fill="url(#n)" transform="translate(.278 .416)"/></g></svg>