<svg xmlns="http://www.w3.org/2000/svg" width="12" height="106"><path d="M7.902 102.702l-3.408 1.187v-.444l2.469-.794c.211-.065.399-.13.558-.174-.176-.041-.358-.099-.558-.157l-2.47-.834v-.418l3.409 1.212v.422zm-3.408-4.024h3.408v-.417H4.494v.417zm2.06-4.52h-.39v-1.31h1.261c.185.206.312.404.4.61.088.22.12.436.12.66 0 .302-.056.581-.195.818-.14.26-.347.445-.627.568-.264.13-.575.187-.919.187-.328 0-.635-.058-.927-.187a1.28 1.28 0 01-.63-.546 1.514 1.514 0 01-.208-.8c0-.227.02-.433.112-.606a1.08 1.08 0 01.335-.43 1.71 1.71 0 01.558-.234l.112.372a1.299 1.299 0 00-.406.169.85.85 0 00-.24.296.948.948 0 00-.091.433 1 1 0 00.099.476.927.927 0 00.24.324c.111.084.224.15.334.189.221.086.451.122.688.122.304 0 .564-.036.783-.137.187-.097.35-.224.443-.411a1.226 1.226 0 00.036-1.097 1.678 1.678 0 00-.239-.383h-.648v.917zm-2.06-3.94h3.408v-.415H4.494v.415zm3.408-3.068H4.494v-.418h2.995v-1.508h.413v1.926zm0-4.034l-3.408-1.182v-.441l3.408-1.263v.469l-1.03.361v1.284l1.03.343v.43zM6.5 82.233v-1.051l-.944.325a7.51 7.51 0 01-.71.217c.224.032.431.094.646.169l1.008.34zm1.402-4.28H4.494v-1.075c0-.227.012-.408.044-.538a.998.998 0 01.252-.454c.148-.164.344-.279.579-.361a2.34 2.34 0 01.811-.126c.267 0 .495.032.691.094.199.046.356.114.49.198.128.093.233.183.312.277.077.105.136.232.181.372.035.144.048.31.048.504v1.11zm-.413-.415v-.66c0-.195-.016-.347-.047-.48a.715.715 0 00-.18-.268.995.995 0 00-.438-.22 1.972 1.972 0 00-.651-.086c-.356 0-.628.05-.816.162-.199.105-.328.224-.391.376-.048.115-.08.289-.08.533v.643h2.603zm-1.253-4.536c-.56 0-1.006-.14-1.326-.41a1.332 1.332 0 01-.471-1.058c0-.289.067-.535.208-.776.164-.22.374-.4.638-.516a2.16 2.16 0 01.911-.184c.352 0 .663.068.935.19.272.13.479.3.619.531.139.242.196.473.196.755 0 .292-.057.545-.209.772a1.45 1.45 0 01-.646.527 2.14 2.14 0 01-.855.169zm0-.414c.439 0 .75-.1.986-.304a.938.938 0 00.355-.75.96.96 0 00-.355-.762c-.243-.195-.58-.299-1.026-.299-.275 0-.52.043-.72.137-.207.075-.371.21-.486.372a.859.859 0 00-.171.538c0 .302.119.54.331.757.219.203.582.311 1.086.311zm3.858-26.093H6.942v-.97c0-.23.02-.398.048-.516a.886.886 0 01.232-.41c.14-.153.308-.264.536-.34.22-.08.467-.12.746-.12.24 0 .456.03.636.08.191.05.347.116.463.202.124.079.212.16.287.253a.834.834 0 01.157.335c.047.148.047.297.047.463v1.023zm-.367-.374v-.603c0-.19-.02-.339-.065-.451a.533.533 0 00-.16-.246c-.099-.097-.223-.155-.398-.213-.16-.05-.36-.07-.616-.07-.324 0-.575.053-.75.143a.772.772 0 00-.36.361c-.039.1-.06.264-.06.483v.596h2.409zm.367-2.504H6.942v-2.063h.376v1.691h.967v-1.587h.37v1.587h1.072v-1.753h.367v2.125zm-1.107-5.785l.117-.378c.34.069.59.22.786.414.176.224.26.461.26.77 0 .298-.056.545-.2.742a1.261 1.261 0 01-.608.445 2.504 2.504 0 01-.854.144 1.93 1.93 0 01-.842-.173 1.14 1.14 0 01-.563-.48 1.33 1.33 0 01-.192-.7c0-.268.08-.512.24-.714a1.3 1.3 0 01.678-.402l.104.364c-.24.069-.41.17-.494.29a.672.672 0 00-.173.483c0 .22.067.404.18.546a.873.873 0 00.466.306c.197.06.398.082.596.082.28 0 .512-.029.71-.096a.885.885 0 00.461-.333.853.853 0 00.132-.477.78.78 0 00-.188-.54 1.02 1.02 0 00-.616-.293zm-.423-.736c-.522 0-.938-.126-1.235-.386a1.234 1.234 0 01-.438-.975 1.272 1.272 0 01.799-1.193c.24-.116.523-.167.843-.167.315 0 .607.05.851.17.252.127.446.286.583.498.127.206.182.447.182.692 0 .269-.055.51-.214.727a1.316 1.316 0 01-.577.476 2.004 2.004 0 01-.794.158zm.004-.389c.384 0 .678-.076.903-.26a.96.96 0 00.32-.712.882.882 0 00-.328-.696c-.217-.183-.535-.27-.938-.27a1.84 1.84 0 00-.67.11.922.922 0 00-.436.34.776.776 0 00-.173.516c0 .264.116.488.307.68.205.201.544.292 1.015.292zm1.526-2.808H6.942v-.372h2.785v-1.405h.367v1.777zm-1.53-2.114c-.522 0-.938-.129-1.235-.383a1.239 1.239 0 01-.438-.978c0-.263.071-.509.208-.707.136-.212.326-.379.59-.497.24-.106.524-.163.844-.163.315 0 .607.057.851.184.252.102.446.285.583.484.127.228.182.458.182.7 0 .274-.055.508-.214.718-.144.21-.332.374-.577.484a1.947 1.947 0 01-.794.158zm.004-.383c.384 0 .678-.096.903-.288a.889.889 0 00.32-.69.888.888 0 00-.328-.7c-.217-.179-.535-.277-.938-.277-.245 0-.475.04-.67.108a.93.93 0 00-.436.355.802.802 0 00-.173.514c0 .263.116.502.307.69.205.192.544.288 1.015.288zm1.526-2.814H6.942v-.567l2.24-.674.477-.138c-.128-.02-.29-.09-.52-.143l-2.197-.687v-.511h3.152v.368H7.458l2.636.83v.328l-2.675.833h2.675v.361zm0-3.312H6.942v-1.08c0-.211.037-.384.1-.52a.64.64 0 01.297-.299.84.84 0 01.42-.122c.13 0 .259.047.378.108.12.065.207.162.292.292a.765.765 0 01.275-.4.91.91 0 01.478-.133c.154 0 .289.024.421.077a.729.729 0 01.287.215.696.696 0 01.157.317c.047.13.047.278.047.461v1.084zm-1.814-.369v-.627c0-.17-.023-.29-.039-.368a.386.386 0 00-.173-.217.504.504 0 00-.259-.057c-.111 0-.2.014-.288.057a.34.34 0 00-.16.203c-.032.078-.043.225-.043.428v.581h.962zm1.447 0v-.715c0-.12 0-.216-.008-.262a.725.725 0 00-.096-.217.605.605 0 00-.16-.15.86.86 0 00-.28-.044.512.512 0 00-.308.083.427.427 0 00-.179.215 1.734 1.734 0 00-.048.422v.668h1.079zm-2.785-2.371h3.152v-.375H6.942v.375zm3.152-.728l-3.152-1.093v-.41l3.152-1.16v.421l-.954.336v1.188l.954.318v.4zm-1.286-.826v-.96l-.879.292a7.214 7.214 0 01-.662.207c.206.034.423.082.622.145l.92.316zm-4.505 44.79l-.024-.358a.958.958 0 00.388-.118.743.743 0 00.243-.289 1.04 1.04 0 00.096-.437c0-.138-.032-.27-.068-.383a.658.658 0 00-.188-.244c-.103-.048-.176-.084-.292-.084a.409.409 0 00-.26.084.534.534 0 00-.175.255 4.51 4.51 0 00-.144.51 2.17 2.17 0 01-.204.537.717.717 0 01-.29.314.753.753 0 01-.408.094.874.874 0 01-.428-.116.802.802 0 01-.33-.354 1.41 1.41 0 01-.105-.54c0-.196.04-.384.12-.543a.765.765 0 01.34-.374c.14-.09.298-.13.483-.138l.031.371a.646.646 0 00-.447.184c-.103.116-.164.275-.164.492 0 .241.053.4.147.497.09.113.2.164.337.164a.36.36 0 00.272-.113c.072-.065.152-.266.227-.566.083-.303.144-.513.204-.631a.99.99 0 01.327-.373c.12-.06.28-.115.448-.115.155 0 .326.055.47.138a.958.958 0 01.353.364c.08.165.12.35.12.559 0 .257-.04.476-.128.646a1.015 1.015 0 01-.385.407 1.098 1.098 0 01-.566.16zm-2.13-4.663v-.371h1.818c.312 0 .563.028.76.1a.87.87 0 01.463.355c.104.166.168.386.168.656s-.056.487-.16.653c-.088.177-.248.293-.433.373-.2.072-.462.103-.798.103H2.173V62.6h1.818c.28 0 .467-.023.598-.065a.533.533 0 00.297-.23c.08-.12.12-.258.12-.42 0-.277-.068-.482-.208-.588-.15-.123-.415-.188-.807-.188H2.173zm3.153-1.006H2.173v-1.076c0-.184.016-.324.026-.425a.871.871 0 01.147-.362.809.809 0 01.32-.215.883.883 0 01.42-.084c.261 0 .505.077.681.224.184.145.28.433.28.833v.745h1.279v.36zm-1.65-.36v-.745c0-.251-.053-.418-.156-.52-.096-.107-.24-.151-.419-.151a.7.7 0 00-.344.084c-.091.068-.165.14-.184.242-.024.057-.024.18-.024.345v.745h1.126zm1.65-2.303H2.173v-2.063h.376v1.691h.955V55.48h.383v1.588h1.079v-1.749h.36v2.12zm0-2.656H2.173v-1.267c0-.242.026-.444.085-.57.048-.137.152-.233.291-.32a.974.974 0 01.483-.116c.23 0 .425.058.563.203.156.132.256.323.3.598a.73.73 0 01.152-.224c.112-.116.256-.215.411-.317l.868-.492v.473l-.66.383a3.795 3.795 0 00-.435.274 1.235 1.235 0 00-.208.178.565.565 0 00-.08.176c-.024.053-.024.115-.024.212v.434h1.407v.375zm-1.757-.375V53.6c0-.178-.026-.311-.065-.405a.468.468 0 00-.188-.224.677.677 0 00-.284-.075.521.521 0 00-.366.144c-.093.094-.144.256-.144.466v.902H3.57zm-1.396-2.547h3.153v-.386H2.173v.386zm3.153-1.044H2.173v-.389l2.474-1.49H2.173v-.368h3.153v.39l-2.478 1.49h2.478v.367zm0-3.604H2.549v.936h-.376v-2.253h.376v.934h2.777v.383zm0-1.718H2.173v-2.06h.376v1.685h.955V43.55h.383v1.572h1.079v-1.75h.36v2.125zm0-2.647H2.173v-.398l2.474-1.478H2.173v-.362h3.153v.381l-2.478 1.496h2.478v.361zm0-2.88H2.173v-.975c0-.23.016-.39.045-.516a.955.955 0 01.216-.421 1.4 1.4 0 01.543-.332c.223-.07.48-.115.755-.115.235 0 .45.038.646.075.173.06.34.115.452.202.136.072.207.165.287.264a.958.958 0 01.152.337c.04.128.057.275.057.46v1.021zm-.36-.376v-.601c0-.193-.028-.345-.08-.446a.608.608 0 00-.144-.255.95.95 0 00-.415-.202c-.16-.062-.36-.08-.595-.08-.34 0-.587.043-.771.145-.164.093-.295.204-.356.35a1.812 1.812 0 00-.056.49v.6h2.417zm.36-2.51H2.173v-2.058h.376v1.682h.955v-1.57h.383v1.57h1.079v-1.743h.36v2.118zm0-2.643H2.173v-.382l2.474-1.5H2.173V32.2h3.153v.387l-2.478 1.486h2.478v.367zm-1.119-4.907l.12-.385c.34.072.611.23.782.432.176.21.273.466.273.758 0 .296-.072.549-.216.737-.137.213-.336.353-.592.454-.27.094-.551.141-.842.141-.34 0-.624-.047-.86-.177a1.174 1.174 0 01-.566-.47 1.445 1.445 0 01-.192-.696c0-.281.075-.527.235-.718.173-.203.397-.336.691-.414l.089.36c-.228.087-.399.17-.495.296a.733.733 0 00-.165.487c0 .216.061.404.18.546.12.143.271.252.459.317.197.053.412.087.624.087.26 0 .491-.034.69-.106a.813.813 0 00.447-.341.844.844 0 00.152-.477.728.728 0 00-.202-.541c-.129-.142-.336-.243-.612-.29zm-2.034-.905h3.153v-.378H2.173v.378zm3.153-.733l-3.153-1.1v-.407l3.153-1.17v.44l-.948.328v1.202l.948.304v.403zm-1.295-.83V26.1l-.876.303c-.258.086-.49.16-.654.205.197.036.4.083.607.155l.923.304zm1.295-3.268H2.173v-1.92h.376v1.55h.971v-1.342h.375v1.343h1.43v.369zM2.173 21.32h3.153v-.375H2.173v.375zm3.153-1.046H2.173v-.373l2.474-1.504H2.173v-.367h3.153v.385L2.848 19.92h2.478v.355zm0-2.56l-3.153-1.103v-.4l3.153-1.165v.425l-.948.347v1.186l.948.315v.396zM4.03 16.89v-.966l-.876.295a4.64 4.64 0 01-.654.202c.197.056.4.09.607.156l.923.313zm1.295-2.135H2.173v-.394l2.474-1.49H2.173v-.364h3.153v.39l-2.478 1.489h2.478v.369zm-1.118-4.93l.12-.367c.34.09.611.22.782.425.176.212.273.454.273.755 0 .309-.072.558-.216.753-.137.192-.336.34-.592.432-.27.101-.551.154-.842.154-.34 0-.624-.053-.86-.164a1.277 1.277 0 01-.566-.484 1.438 1.438 0 01-.192-.703c0-.28.075-.512.235-.717.173-.193.397-.322.691-.405l.089.376c-.228.075-.399.158-.495.283a.678.678 0 00-.165.475c0 .222.061.41.18.552a.92.92 0 00.459.31c.197.06.412.1.624.1.26 0 .491-.04.69-.112a.868.868 0 00.447-.34.846.846 0 00.152-.482.714.714 0 00-.202-.534c-.129-.16-.336-.25-.612-.307zM2.173 8.93h3.153v-.378H2.173v.378zm3.153-1.05H2.173V5.82h.376v1.689h.955V5.927h.383V7.51h1.079V5.748h.36V7.88zm0-2.656H2.173V3.966c0-.26.026-.448.085-.586a.598.598 0 01.291-.317c.15-.077.316-.115.483-.115.23 0 .425.065.563.192.156.129.256.33.3.612a.653.653 0 01.152-.228c.112-.106.256-.22.411-.306l.868-.5v.474l-.66.366a5.001 5.001 0 00-.435.284c-.088.07-.173.128-.208.177a.59.59 0 00-.08.176c-.024.044-.024.116-.024.214v.44h1.407v.375zM3.569 4.85v-.81c0-.177-.026-.317-.065-.404a.405.405 0 00-.188-.22.626.626 0 00-.284-.086.511.511 0 00-.366.144c-.093.108-.144.26-.144.469v.905H3.57zm1.757-2.19L2.173 1.566v-.401L5.326 0v.43l-.948.33v1.194l.948.304v.402zM4.03 1.847V.87l-.876.312c-.258.096-.49.153-.654.197.197.039.4.082.607.15l.923.318zM.533 105.917h1.322V68.034H.533v37.883zm9.657 0h1.325V68.034H10.19v37.883z" fill="#A8A8A8" fill-rule="evenodd"/></svg>