<svg xmlns="http://www.w3.org/2000/svg" xmlns:xlink="http://www.w3.org/1999/xlink" width="25" height="25"><defs><linearGradient id="b" x1="47.526%" x2="100.984%" y1="48.589%" y2="60.428%"><stop offset="0%" stop-color="#ED1C24"/><stop offset="100%" stop-color="#FFF"/></linearGradient><linearGradient id="d" x1="10.328%" x2="88.652%" y1="50.004%" y2="50.004%"><stop offset="0%" stop-color="#ED1C24"/><stop offset="100%" stop-color="#FFD400"/></linearGradient><linearGradient id="e" x1="50.005%" x2="50.005%" y1="-.798%" y2="35.654%"><stop offset="0%" stop-color="#E39717"/><stop offset="100%" stop-color="#FFD400"/></linearGradient><linearGradient id="g" x1="27.04%" x2="46.802%" y1="24.365%" y2="60.208%"><stop offset="0%" stop-color="#E39717"/><stop offset="100%" stop-color="#FFD400"/></linearGradient><path id="a" d="M20.796 16.172c0 .897-.484 2.287-1.532 3.285a11.089 11.089 0 01-8.102 3.072c-6.141-.23-10.944-5.4-10.709-11.55C.69 4.837 5.985.367 12.386.255h.206l-.11.324C8.415.794 3.87 4.425 3.694 9.005c-.191 4.936 3.823 9.09 8.964 9.273a9.485 9.485 0 006.938-2.606c.778-.743 1.2-.337 1.2.5z"/><path id="f" d="M11.493 5.904c0 4.685-5.993 8.38-11.418 8.13 2.93-.78 4.455-1.989 5.392-3.587.757-1.421.426-2.784.367-2.961C5.517 5.299 5.186 1.57 8.456.223c2.15 1.928 3.037 3.878 3.037 5.681z"/></defs><g fill="none" fill-rule="evenodd"><g transform="translate(0 .478)"><mask id="c" fill="#fff"><use xlink:href="#a"/></mask><path fill="url(#b)" d="M12.386.255C5.985.367.69 4.837.453 10.98c-.235 6.15 4.568 11.32 10.71 11.55a11.089 11.089 0 008.101-3.072c2.026-1.93 1.945-5.325.332-3.785a9.485 9.485 0 01-6.938 2.606c-5.141-.183-9.155-4.337-8.964-9.273C3.871 4.425 8.415.794 12.482.58l.11-.324h-.206z" mask="url(#c)"/></g><path fill="#FFD400" d="M13.28 1.059c5.168.312 9.424 4.716-5.618 9.115 3.83.752 6.661 2.549 6.661 2.549C27.202 6.176 19.876.71 12.587.733l-.105.323c.269-.014.534-.014.798.003"/><path fill="url(#d)" d="M12.35.734c-2.357.05-4.56.69-6.422 1.782v.003l1.014.844c1.621-1.348 3.632-2.203 5.54-2.306a7.51 7.51 0 01.794 0c2.531.155 4.85 1.29 4.78 2.93h.003l1.264-1.493C17.676 1.403 15.235.759 12.78.734h-.428z"/><path fill="url(#e)" d="M7.562 10.176c3.404.421 10.575 4.266 11.232 7.925l-.215-1.51c-.523-3.462.206-6.812 5.496-7.085-2.535-1.223-4.789-1.65-6.807-1.65-4.087 0-7.201 1.767-9.706 2.32"/><g transform="translate(12.885 10.298)"><mask id="h" fill="#fff"><use xlink:href="#f"/></mask><path fill="url(#g)" d="M5.834 7.486c.059.177.39 1.54-.367 2.961-.937 1.598-2.461 2.806-5.392 3.586C7.587 14.38 16.19 7.161 8.456.223 5.186 1.571 5.517 5.3 5.834 7.486" mask="url(#h)"/></g></g></svg>