<svg width="182" height="36" xmlns="http://www.w3.org/2000/svg"><defs><linearGradient x1="28.596%" y1="44.404%" x2="87.154%" y2="57.371%" id="a"><stop stop-color="#ED1C24" offset="0%"/><stop stop-color="#8B0304" offset="100%"/></linearGradient><linearGradient x1="10.322%" y1="49.953%" x2="88.651%" y2="49.953%" id="b"><stop stop-color="#ED1C24" offset="0%"/><stop stop-color="#FFCB05" offset="100%"/></linearGradient><linearGradient x1="50.002%" y1="-.786%" x2="50.002%" y2="35.658%" id="c"><stop stop-color="#E39717" offset="0%"/><stop stop-color="#E8A116" offset="12.36%"/><stop stop-color="#F4B710" offset="43.44%"/><stop stop-color="#FCC509" offset="73.21%"/><stop stop-color="#FFCB05" offset="100%"/></linearGradient><linearGradient x1="27.043%" y1="24.367%" x2="46.808%" y2="60.204%" id="d"><stop stop-color="#E39717" offset="0%"/><stop stop-color="#E8A116" offset="10.13%"/><stop stop-color="#F4B710" offset="35.61%"/><stop stop-color="#FCC509" offset="60%"/><stop stop-color="#FFCB05" offset="82.095%"/><stop stop-color="#FFCB05" offset="99.771%"/></linearGradient></defs><g fill="none"><path d="M18.008.005C8.35.171.365 6.816.012 15.945c-.347 9.136 6.885 16.823 16.154 17.165a16.896 16.896 0 0012.227-4.56c3.053-2.868 2.927-7.915.5-5.627-2.668 2.515-6.4 4.02-10.469 3.875-7.758-.275-13.812-6.448-13.522-13.788C5.17 6.199 12.024.81 18.156.482L18.314 0c-.1.005-.2.005-.306.005z" fill="url(#a)" transform="translate(145.194 .101)"/><path d="M164.556.584c7.785.467 14.193 7.01-8.464 13.554 5.772 1.12 10.036 3.793 10.036 3.793C185.525 8.196 174.49.07 163.515.1l-.158.483a9.237 9.237 0 011.199 0z" fill="#FFCB05"/><path d="M9.868 3.924C12.314 1.91 15.35.637 18.233.48a10.7 10.7 0 011.202.005c3.826.23 7.32 1.926 7.215 4.378l1.914-2.228C26.007.96 22.196-.01 18.39 0h-.306C14.5.063 11.148 1.017 8.333 2.666l1.534 1.258z" fill="url(#b)" transform="translate(145.194 .101)"/><path d="M27.71 25.864c-.005-.088-.321-2.25-.321-2.25-.785-5.137.31-10.113 8.298-10.522-11.586-5.48-19.288-.234-24.931.995 5.137.627 15.964 6.34 16.954 11.777z" fill="url(#c)" transform="translate(145.194 .101)"/><path d="M31.528 14.588c-4.937 2.005-4.431 7.558-3.957 10.815.095.265.59 2.291-.553 4.405-1.418 2.38-3.715 4.177-8.142 5.34 11.345.52 24.33-10.223 12.652-20.56z" fill="url(#d)" transform="translate(145.194 .101)"/><path d="M41.215 21.985c-1.02.255-1.786.382-2.552.382-1.914 0-2.296-1.653-2.296-3.051 0-2.162.765-3.306 2.296-3.306.766 0 1.276.127 1.276.127l1.404.509v-1.78l-.128-.127c-.51-.254-1.658-.636-3.062-.636-2.807 0-4.594 2.034-4.594 5.086 0 2.924 1.787 4.83 4.339 4.83 1.148 0 2.17-.254 3.7-.89l.256-.126-.383-1.399-.256.381zM8.932 17.027c1.276-.508 1.787-1.398 1.787-2.924 0-1.398-.638-2.542-1.787-2.924-.765-.381-1.531-.381-3.956-.381H0v1.398s1.148.128 1.531.255v11.696h3.956c1.914 0 2.807-.127 3.573-.509 1.276-.635 2.041-1.78 2.041-3.305.128-1.78-.638-2.924-2.169-3.306zm-4.594-4.576h.766c1.02 0 1.787 0 2.297.381.383.254.51.763.51 1.271 0 1.272-.382 1.907-1.914 2.034l-1.148.128-.51.89V12.45zm3.19 9.407c-.637.509-1.53.509-2.68.509h-.51v-4.323H5.36c1.021 0 1.787 0 2.297.382.383.381.638.89.638 1.653 0 .762-.255 1.398-.765 1.78zm79.624-4.831c1.276-.508 1.787-1.398 1.787-2.924 0-1.398-.638-2.542-1.787-2.924-.765-.381-1.531-.381-3.955-.381H78.22v1.398s1.149.128 1.531.255v11.696h3.956c1.914 0 2.807-.127 3.573-.509 1.276-.635 2.042-1.78 2.042-3.305.127-1.78-.639-2.924-2.17-3.306zm-4.593-4.576h.765c1.021 0 1.787 0 2.297.381.383.254.51.763.51 1.271 0 1.272-.382 1.907-1.914 2.034l-1.148.128-.51.89V12.45zm3.19 9.407c-.638.509-1.532.509-2.68.509h-.51v-4.323h1.02c1.021 0 1.787 0 2.297.382.383.381.638.89.638 1.653.128.762-.255 1.398-.765 1.78zM29.604 14.23c-.766 0-1.787.255-3.063.763v-.763l-3.955.509v1.398h1.53v7.883h2.68v-7.374c.383-.127 1.149-.381 2.042-.381.383 0 .766.127.893.254.256.254.256.763.256 1.398v6.103h2.68v-6.23c0-1.398-.128-1.907-.511-2.542-.638-.636-1.404-1.018-2.552-1.018zm17.481 0c-2.935 0-4.849 1.907-4.849 4.959 0 3.05 1.787 4.958 4.85 4.958 2.934 0 4.72-1.907 4.72-4.958 0-3.052-1.786-4.959-4.72-4.959zm0 8.264c-.893 0-2.041-.381-2.041-3.305 0-2.924 1.02-3.306 2.041-3.306.893 0 2.042.382 2.042 3.178-.128 3.052-1.149 3.433-2.042 3.433zm69.288-8.264c-2.935 0-4.849 1.907-4.849 4.959 0 3.05 1.787 4.958 4.85 4.958 2.934 0 4.848-1.907 4.848-4.958 0-3.052-1.786-4.959-4.849-4.959zm0 8.264c-.893 0-2.041-.381-2.041-3.305 0-2.924 1.02-3.306 2.041-3.306.893 0 2.042.382 2.042 3.178 0 3.052-1.021 3.433-2.042 3.433zm11.229-.254l-1.914.254c-.383 0-.51-.127-.638-.254 0-.127-.127-.127-.127-.89v-5.213h2.68v-1.652h-2.68v-2.543h-.383l-2.297.254v9.027c0 1.017.127 1.652.51 2.16.383.51 1.021.764 1.914.764.894 0 1.787-.255 2.808-.636l.255-.127-.128-1.144zm-32.028-8.01c-2.935 0-4.849 1.907-4.849 4.959 0 3.05 1.787 4.958 4.849 4.958 2.935 0 4.721-1.907 4.721-4.958 0-3.052-1.786-4.959-4.721-4.959zm0 8.264c-.893 0-2.042-.381-2.042-3.305 0-2.924 1.021-3.306 2.042-3.306.893 0 2.042.382 2.042 3.178 0 3.052-1.021 3.433-2.042 3.433zm12.25-7.501c-.638-.381-1.404-.508-2.042-.508-2.68 0-4.593 2.161-4.593 5.085 0 2.797 1.53 4.577 3.828 4.577.638 0 1.276-.127 2.68-.763v.763c0 1.652-.639 2.16-2.68 2.16-.894 0-2.17-.126-3.19-.38v1.652c2.041.382 2.807.509 3.828.509 1.276 0 2.424-.255 3.19-.636 1.148-.636 1.53-1.525 1.53-3.178v-9.662h-2.679v.381h.128zm0 7.12c-.51.127-.766.127-1.276.127-1.659 0-2.425-1.017-2.425-2.924 0-2.034 1.021-3.051 2.68-3.051.255 0 .51 0 1.02.127v5.72zm-86.642-7.374H18.63v.381c-.638-.381-1.276-.508-2.042-.508-2.552 0-4.466 2.034-4.466 5.085 0 2.797 1.404 4.577 3.828 4.577.638 0 1.404-.254 2.552-1.017v.89l3.7-.382V22.24h-1.02v-7.501zm-2.552 7.5c-.51.128-.766.128-1.276.128-1.659 0-2.552-1.017-2.552-2.924 0-2.034 1.02-3.178 2.807-3.178.383 0 .51 0 1.02.127v5.848zm118.798-7.5h-2.553v.381c-.638-.381-1.276-.508-2.041-.508-2.552 0-4.466 2.034-4.466 5.085 0 2.797 1.403 4.577 3.828 4.577.638 0 1.403-.254 2.552-1.017v.89l3.7-.382V22.24h-1.02v-7.501zm-2.68 7.5c-.51.128-.766.128-1.276.128-1.659 0-2.552-1.017-2.552-2.924 0-2.034 1.02-3.178 2.807-3.178.383 0 .51 0 1.02.127v5.848zm1.403-9.915l-.638-2.035-.255.128-4.21 1.652.382 1.144zm-71.584-2.289h-.383l-3.445.382v1.144h1.276v3.05c-1.021-.38-2.552-.635-3.828-.253-1.787.635-2.935 2.288-2.935 4.703 0 2.162 1.02 3.942 2.807 4.577 1.276.382 3.062 0 4.083-.508v.762l3.573-.508V22.24h-1.148c-.128 0 0-12.205 0-12.205zm-2.68 12.078c-1.148.381-2.552.508-3.318-.509-.51-.636-.638-1.525-.638-2.415v-.255c0-1.017.256-1.652.766-2.288.766-.89 2.17-.763 3.19-.254.128 0 0 5.466 0 5.72zm9.06-7.883c-.638 0-1.149 0-1.659.255-1.914.635-3.062 2.288-3.062 4.83 0 2.29 1.148 4.069 3.062 4.705 1.659.508 4.083 0 5.742-.89h.128l-.383-1.399-.893.254c-1.276.382-2.935 1.018-3.956-.254-.51-.635-.638-1.652-.638-2.415l5.104.127h.766v-.763c-.128-4.577-4.084-4.45-4.211-4.45zm-1.914 3.814c0-.127.127-2.034 1.786-2.034 1.787 0 1.787 1.907 1.787 2.034h-3.573z" fill="#FFF"/></g></svg>