<svg xmlns="http://www.w3.org/2000/svg" width="30" height="24"><path fill="#6680AD" fill-rule="evenodd" d="M.831 3.134a1.533 1.533 0 01-.261-.426 1.395 1.395 0 01-.087-.514c0-.176.029-.342.087-.5a1.144 1.144 0 01.667-.675c.155-.059.319-.088.493-.088h26.474c.174 0 .339.03.493.088a1.144 1.144 0 01.667.676c.058.157.087.323.087.5 0 .195-.029.367-.087.513a1.533 1.533 0 01-.26.426 1.126 1.126 0 01-.407.265 1.376 1.376 0 01-.493.088H1.73c-.174 0-.338-.03-.493-.088a1.126 1.126 0 01-.406-.265zm28.272 8.374c.116.117.203.254.261.41.058.158.087.324.087.5 0 .177-.029.343-.087.5a1.144 1.144 0 01-.667.676 1.376 1.376 0 01-.493.088H1.73c-.174 0-.338-.03-.493-.088a1.144 1.144 0 01-.667-.676 1.427 1.427 0 01-.087-.5c0-.176.029-.342.087-.5a1.144 1.144 0 01.667-.675c.155-.059.319-.088.493-.088h26.474c.174 0 .339.03.493.088.155.059.29.147.406.265zm0 10.194c.116.118.203.255.261.412.058.156.087.323.087.5 0 .195-.029.366-.087.513a1.533 1.533 0 01-.26.426 1.126 1.126 0 01-.407.265 1.376 1.376 0 01-.493.088H1.73c-.174 0-.338-.03-.493-.088a1.126 1.126 0 01-.406-.265 1.533 1.533 0 01-.261-.426 1.395 1.395 0 01-.087-.514c0-.176.029-.343.087-.5a1.144 1.144 0 01.667-.675c.155-.059.319-.088.493-.088h26.474c.174 0 .339.03.493.088.155.059.29.147.406.264z"/></svg>