<svg width="40" height="40" xmlns="http://www.w3.org/2000/svg"><g fill="none" fill-rule="evenodd"><circle stroke="#FDB913" stroke-width="2" cx="20.262" cy="20.058" r="18.5"/><path d="M25.271 27.375h-9.98v-2.1l3.584-3.623c1.061-1.087 1.755-1.84 2.08-2.26.326-.42.56-.81.703-1.167a2.98 2.98 0 00.215-1.114c0-.573-.158-.999-.474-1.279-.315-.28-.737-.42-1.264-.42a3.64 3.64 0 00-1.612.381c-.52.254-1.064.615-1.63 1.084l-1.641-1.943c.703-.6 1.286-1.023 1.748-1.27a6.417 6.417 0 011.514-.571 7.756 7.756 0 011.836-.2c.892 0 1.68.162 2.363.488.683.325 1.214.781 1.592 1.367.377.586.566 1.257.566 2.012 0 .657-.115 1.274-.347 1.85-.23.577-.589 1.167-1.074 1.773-.485.605-1.34 1.468-2.563 2.588l-1.836 1.728v.137h6.22v2.539z" fill="#002C76"/></g></svg>