<svg width="36" height="35" xmlns="http://www.w3.org/2000/svg"><g transform="translate(.333)" fill="none" fill-rule="evenodd"><ellipse fill="#56AFEF" cx="17.561" cy="17.309" rx="17.561" ry="17.309"/><path d="M11.263 14.31l1.21 1.776a4.987 4.987 0 103.644-3.621l-1.767-1.222a6.699 6.699 0 011.812-.584l1.147-5.965 1.147 5.965a6.754 6.754 0 015.503 5.503l5.965 1.147-5.965 1.147a6.754 6.754 0 01-5.503 5.503l-1.147 5.965-1.147-5.965a6.754 6.754 0 01-5.503-5.503l-5.965-1.147 5.965-1.147a6.7 6.7 0 01.604-1.852z" fill="#FFF"/><path fill="#F54747" d="M6.132 6.119l13.07 9.335-3.734 3.734z"/><path fill="#F8D8D8" d="M28.483 28.47l-13.07-9.336 3.735-3.734z"/><circle fill="#FFF" cx="17.309" cy="17.309" r="2.64"/></g></svg>